<svg xmlns="http://www.w3.org/2000/svg" width="23" height="24" viewBox="0 0 23 24">
    <g fill="none" fill-rule="evenodd" stroke-linecap="round" stroke-linejoin="round">
        <g stroke="#716EFF" stroke-width="1.5">
            <g>
                <g>
                    <path d="M20.111 12.262c.024-.25.04-.505.04-.762s-.016-.511-.04-.763l2.701-2.095c.193-.15.245-.415.121-.624l-2.657-4.536c-.12-.209-.382-.295-.608-.208l-3.196 1.26c-.434-.304-.882-.562-1.338-.772L14.645.416C14.609.177 14.403 0 14.158 0H8.843c-.245 0-.451.177-.487.416l-.49 3.346c-.456.21-.904.468-1.337.771l-3.197-1.26c-.225-.086-.486 0-.608.209L.067 8.018c-.124.209-.072.474.12.624l2.702 2.095c-.024.251-.04.505-.04.763 0 .257.016.511.04.762L.188 14.36c-.193.149-.245.415-.121.624l2.657 4.535c.122.21.383.299.608.208l3.197-1.259c.431.302.88.56 1.338.77l.489 3.347c.036.239.242.416.487.416h5.315c.245 0 .451-.177.487-.416l.49-3.346c.457-.21.905-.47 1.337-.77l3.196 1.258c.226.09.487.002.608-.208l2.658-4.535c.123-.209.07-.475-.122-.624l-2.7-2.097z" transform="translate(-332.000000, -122.000000) translate(265.000000, 122.000000) translate(67.000000, 0.056279)"/>
                    <path fill="#716EFF" fill-opacity=".356" d="M11.5 6C8.424 6 5.92 8.466 5.92 11.5S8.423 17 11.5 17c3.077 0 5.581-2.467 5.581-5.5S14.578 6 11.501 6z" transform="translate(-332.000000, -122.000000) translate(265.000000, 122.000000) translate(67.000000, 0.056279)"/>
                </g>
            </g>
        </g>
    </g>
</svg>
