<svg xmlns="http://www.w3.org/2000/svg" width="32" height="40" viewBox="0 0 32 40">
    <g fill="none" fill-rule="evenodd" stroke-linecap="round" stroke-linejoin="round">
        <g stroke="#716EFF" stroke-width="1.379">
            <g>
                <g>
                    <path d="M3.546 7.922L12.392 7.922M3.546 11.385L21.407 11.385M3.546 14.846L21.407 14.846M3.546 18.309L21.407 18.309M3.546 21.771L21.407 21.771M3.546 25.233L21.407 25.233M3.546 28.695L21.407 28.695" transform="translate(-303.000000, -417.000000) translate(20.000000, 407.000000) translate(283.000000, 10.000000)"/>
                    <g>
                        <path fill="#CCCBFF" d="M31.373 34.619c0-2.972-2.435-5.382-5.438-5.382-3.003 0-5.438 2.41-5.438 5.382 0 2.972 2.435 5.381 5.438 5.381 3.003 0 5.438-2.409 5.438-5.381z" transform="translate(-303.000000, -417.000000) translate(20.000000, 407.000000) translate(283.000000, 10.000000)"/>
                        <path d="M22.632 34.613L26.069 31.211 29.507 34.613M26.069 31.211L26.069 37.948" transform="translate(-303.000000, -417.000000) translate(20.000000, 407.000000) translate(283.000000, 10.000000)"/>
                        <path d="M21.666 37.948L0 37.948 0 3.462 26.07 3.462 26.07 29.237" transform="translate(-303.000000, -417.000000) translate(20.000000, 407.000000) translate(283.000000, 10.000000)"/>
                        <path d="M3.546 3.462L3.546 0 29.615 0 29.615 30.664" transform="translate(-303.000000, -417.000000) translate(20.000000, 407.000000) translate(283.000000, 10.000000)"/>
                    </g>
                </g>
            </g>
        </g>
    </g>
</svg>
