<svg xmlns="http://www.w3.org/2000/svg" width="20" height="20" viewBox="0 0 20 20">
    <g fill="none" fill-rule="evenodd">
        <g>
            <g>
                <g transform="translate(-282.000000, -352.000000) translate(0.000000, 289.000000) translate(282.000000, 63.000000)">
                    <rect width="20" height="20" fill="#EBEBEB" rx="10"/>
                    <path fill="#ABABAB" d="M8.602 13.347l.92-.89 1.785-1.729L12.5 9.572c.065-.062.128-.127.184-.198.073-.09.146-.18.206-.28.06-.1.105-.205.15-.311.075-.178.11-.358.134-.548.094-.701-.223-1.46-.799-1.895-.302-.229-.647-.4-1.03-.455-.384-.055-.781-.041-1.147.097-.306.117-.578.275-.814.501l-.087.084-1.244 1.205-1.806 1.749L5.04 10.69c-.251.243-.48.513-.641.823-.334.638-.43 1.35-.289 2.05.132.655.518 1.286 1.05 1.709.307.244.633.426 1.006.556.32.112.667.166 1.007.172.342.005.695-.046 1.019-.15.379-.123.708-.304 1.022-.542.145-.11.273-.238.402-.363l1.364-1.32 1.79-1.735 1.068-1.033c.825-.799 1.292-1.915 1.228-3.048-.037-.663-.234-1.319-.592-1.888-.366-.581-.89-1.077-1.504-1.408-.6-.323-1.279-.5-1.964-.512-.692-.012-1.38.151-1.994.458-.386.193-.734.457-1.04.753l-.44.426-1.679 1.626L4.33 8.739l-.243.235c-.203.197-.219.559 0 .753.22.195.56.21.777 0l.419-.406.994-.962 1.179-1.141.968-.938c.16-.156.318-.316.486-.465.073-.066.15-.127.228-.185l-.111.083c.241-.18.504-.328.783-.444l-.132.053c.298-.12.61-.203.93-.246l-.146.02c.319-.04.64-.04.957 0l-.145-.02c.32.043.631.124.93.246l-.132-.053c.28.116.542.265.783.444l-.112-.083c.242.182.459.392.647.626l-.087-.108c.186.234.34.488.46.758l-.056-.127c.125.288.21.59.254.9l-.019-.14c.041.308.041.619 0 .926l.02-.141c-.045.31-.128.612-.255.9l.055-.127c-.12.27-.273.525-.459.758l.087-.108c-.195.243-.428.455-.654.673l-1.075 1.04-1.347 1.305-1.151 1.115c-.162.157-.324.315-.488.472-.08.077-.165.149-.254.217l.111-.084c-.174.129-.365.237-.567.32l.132-.053c-.216.088-.442.148-.674.18.048-.007.097-.014.145-.019-.237.03-.476.03-.714 0l.146.019c-.232-.032-.46-.092-.675-.18l.132.053c-.202-.083-.393-.191-.567-.32l.111.084c-.178-.135-.34-.29-.478-.463l.087.108c-.134-.17-.245-.354-.331-.55l.055.128c-.09-.209-.153-.428-.186-.653l.02.141c-.032-.23-.032-.461 0-.691l-.02.14c.033-.224.095-.444.186-.652l-.055.127c.086-.195.197-.38.33-.549l-.086.108c.176-.22.395-.411.596-.608l1.072-1.037 1.325-1.284 1.14-1.103c.17-.165.34-.331.512-.496.052-.05.107-.097.166-.141l-.111.084c.114-.084.236-.153.368-.208l-.132.053c.135-.054.276-.091.42-.111l-.145.018c.156-.02.314-.02.47 0l-.146-.018c.144.02.284.057.42.111l-.131-.053c.131.055.254.124.368.208l-.112-.084c.117.088.22.187.31.3l-.086-.107c.087.11.158.228.214.356-.018-.042-.037-.085-.054-.128.056.13.094.268.115.407l-.02-.14c.021.151.021.304 0 .454.008-.046.014-.094.02-.14-.02.139-.06.274-.115.406l.054-.128c-.056.128-.127.246-.214.357l.087-.108c-.142.177-.322.33-.484.488l-.93.902-1.157 1.12-1.011.978c-.165.16-.333.317-.495.479l-.006.006c-.204.197-.219.56 0 .753.214.193.554.209.771-.002" transform="translate(9.500000, 10.000000) rotate(-180.000000) translate(-9.500000, -10.000000)"/>
                </g>
            </g>
        </g>
    </g>
</svg>
