<?xml version="1.0" encoding="UTF-8"?>
<svg width="124px" height="100px" viewBox="0 0 124 100" version="1.1" xmlns="http://www.w3.org/2000/svg" xmlns:xlink="http://www.w3.org/1999/xlink">
    <title>AB2D38F8-1E0F-4437-AD37-1EEE5B82CE5A</title>
    <g id="Design" stroke="none" stroke-width="1" fill="none" fill-rule="evenodd" stroke-linecap="round" stroke-linejoin="round">
        <g id="Personal-Area-subscription" transform="translate(-805.000000, -280.000000)" stroke="#716EFF" stroke-width="3">
            <g id="Group-4-Copy" transform="translate(784.000000, 238.000000)">
                <g id="icon/online" transform="translate(21.000000, 42.000000)">
                    <path d="M79.3882178,22 L10.6117822,22 C4.75061438,22 0,26.7778547 0,32.6726308 L0,77.5594009 C0,82.2229004 2.97341733,86.189303 7.11969125,87.639891 C9.18348275,88.3636185 10.6117822,90.2559623 10.6117822,92.4537755 L10.6117822,97.7470119 C10.6117822,99.7505778 13.0197986,100.753144 14.4262919,99.3370192 L23.1767679,90.5363675 C24.6455644,89.0607154 26.6361497,88.2320317 28.7124018,88.2320317 L79.3882178,88.2320317 C85.2493856,88.2320317 90,83.4526105 90,77.5594009 L90,32.6726308 C90,26.7778547 85.2493856,22 79.3882178,22 Z" id="Stroke-1"></path>
                    <path d="M34,21.9479271 L34,10.6724165 C34,4.77932522 38.7506144,0 44.6117822,0 L113.388218,0 C119.249386,0 124,4.77932522 124,10.6724165 L124,55.5582851 C124,60.2232574 121.025025,64.1880139 116.878751,65.6401393 C114.816517,66.3622858 113.388218,68.256158 113.388218,70.4523605 L113.388218,75.7470571 C113.388218,77.7505828 110.980201,78.7531289 109.57215,77.3370326 L100.821675,68.5365576 C99.3544356,67.0609351 97.3638503,66.2307016 95.2875982,66.2307016 L90.0790558,66.2307016" id="Stroke-3"></path>
                    <path d="M32,56.5 C32,59.5384166 29.5371696,62 26.5008033,62 C23.4628304,62 21,59.5384166 21,56.5 C21,53.4615834 23.4628304,51 26.5008033,51 C29.5371696,51 32,53.4615834 32,56.5 Z" id="Stroke-5" fill="#CCCBFF"></path>
                    <path d="M50,56.5 C50,59.5384166 47.5371696,62 44.5008033,62 C41.4628304,62 39,59.5384166 39,56.5 C39,53.4615834 41.4628304,51 44.5008033,51 C47.5371696,51 50,53.4615834 50,56.5 Z" id="Stroke-7" fill="#CCCBFF"></path>
                    <path d="M69,56.5 C69,59.5384166 66.5371696,62 63.5008033,62 C60.4628304,62 58,59.5384166 58,56.5 C58,53.4615834 60.4628304,51 63.5008033,51 C66.5371696,51 69,53.4615834 69,56.5 Z" id="Stroke-9" fill="#CCCBFF"></path>
                </g>
            </g>
        </g>
    </g>
</svg>