<?xml version="1.0" encoding="UTF-8"?>
<svg width="20px" height="20px" viewBox="0 0 20 20" version="1.1" xmlns="http://www.w3.org/2000/svg" xmlns:xlink="http://www.w3.org/1999/xlink">
    <title>8C0B052E-F4A3-44C6-8AE0-854B7E60F4EA</title>
    <g id="Design" stroke="none" stroke-width="1" fill="none" fill-rule="evenodd">
        <g id="Inbox" transform="translate(-1593.000000, -409.000000)">
            <g id="Group-4" transform="translate(1362.000000, 251.000000)">
                <g id="Group-7-Copy-2" transform="translate(231.000000, 158.000000)">
                    <rect id="Rectangle" fill="#EBEBEB" x="0" y="0" width="20" height="20" rx="10"></rect>
                    <path d="M8.60242385,13.3465766 C8.90876875,13.0499534 9.21485858,12.7535773 9.52120349,12.4569542 C10.115783,11.8812436 10.7118929,11.3040511 11.3067275,10.7280935 C11.7048994,10.3425575 12.1033263,9.95702157 12.5002228,9.57247354 C12.5647567,9.50998757 12.6277602,9.44503181 12.6841317,9.37439549 C12.7568281,9.28400078 12.8297795,9.19360606 12.8902322,9.09382609 C12.9491545,8.99404613 12.9945578,8.88907958 13.0399612,8.78263116 C13.1154633,8.6045585 13.1496434,8.42500396 13.1743856,8.23482928 C13.267743,7.53389974 12.950685,6.77591779 12.3752361,6.33975092 C12.0729724,6.11104734 11.7283662,5.93964315 11.3449887,5.88506054 C10.9605909,5.83047794 10.5636944,5.84381487 10.1984272,5.98212373 C9.89208233,6.0991923 9.62017253,6.25725956 9.38397321,6.48349334 C9.35514976,6.51140209 9.3263263,6.53931085 9.29724776,6.5672196 C8.88249604,6.96880925 8.46774432,7.37039891 8.0529926,7.77198856 C7.45152609,8.35436765 6.84852912,8.93822863 6.2470626,9.52060772 C5.84455448,9.91034233 5.44230142,10.3000769 5.0397933,10.6895646 C4.78854456,10.9330869 4.55923226,11.2030362 4.3985351,11.5127493 C4.06464211,12.1511928 3.96847889,12.8624955 4.11004544,13.5634251 C4.24191914,14.2176754 4.6278474,14.8492035 5.16069878,15.2720335 C5.46704368,15.5155559 5.7925192,15.6975802 6.1659488,15.8279857 C6.48606774,15.9396207 6.8334797,15.9942033 7.17272926,15.9996369 C7.51478465,16.0048234 7.86755318,15.9544395 8.19175333,15.849226 C8.57079457,15.7269708 8.90035128,15.5461814 9.21358321,15.3080926 C9.35923095,15.1976925 9.48676838,15.0700037 9.61609134,14.9450318 C10.0706347,14.5049133 10.5251781,14.0647947 10.9797215,13.6244292 C11.5771069,13.0460018 12.1732168,12.4688093 12.7706021,11.8903818 C13.1264315,11.5460916 13.4820059,11.2015543 13.8378353,10.8572641 C14.6632576,10.0580364 15.1300446,8.94218031 15.0655106,7.80928256 C15.0285248,7.14564701 14.8321171,6.49016181 14.4737369,5.92087266 C14.1084697,5.33972847 13.5837808,4.84379241 12.9698156,4.51259209 C12.3708998,4.18954211 11.6911253,4.01270435 11.0057392,4.00060233 C10.3137211,3.98874728 9.62552911,4.15224811 9.011819,4.45949137 C8.62589073,4.65238283 8.2782237,4.91566362 7.97213387,5.21203975 C7.82521075,5.35454727 7.67956301,5.49532593 7.53263989,5.63758648 C6.97224043,6.18020177 6.41184096,6.72281707 5.85297195,7.26395048 C5.34486283,7.75618183 4.83802908,8.24668433 4.32991996,8.73891568 C4.24880616,8.81720837 4.16769235,8.89574805 4.08683362,8.97428772 C3.88353896,9.17088389 3.86823447,9.53270974 4.08683362,9.72683611 C4.30645308,9.92244435 4.64697801,9.93701618 4.86404672,9.72683611 C5.00408282,9.59124403 5.14284354,9.45688685 5.28287964,9.32129477 C5.6139668,9.00071459 5.94632934,8.67889951 6.27716144,8.35856631 C6.66997672,7.97821695 7.062792,7.59786759 7.45560728,7.21751822 C7.77827698,6.90508839 8.10120175,6.59241157 8.42387145,6.27998173 C8.58456861,6.12438427 8.74245995,5.96360022 8.91004413,5.81467121 C8.98274046,5.74946846 9.05977307,5.6882174 9.13808105,5.62968311 C9.10084012,5.65759187 9.06385427,5.68550062 9.02686841,5.71340937 C9.2684243,5.53385483 9.53089633,5.38492583 9.80969315,5.26933914 C9.7655652,5.28662774 9.72169233,5.30515125 9.67781945,5.32243986 C9.97574689,5.20141961 10.2877034,5.11917523 10.6075673,5.07644767 C10.5596132,5.08311614 10.5101287,5.0897846 10.4619196,5.09521816 C10.7805081,5.05520738 11.1019024,5.05520738 11.4192155,5.09521816 C11.3712614,5.0885497 11.3217769,5.08188124 11.2735678,5.07644767 C11.5936867,5.11917523 11.9053882,5.20018471 12.2035707,5.32243986 C12.1594428,5.30515125 12.1155699,5.28662774 12.071697,5.26933914 C12.3517692,5.38492583 12.6139862,5.53385483 12.8545217,5.71340937 C12.8172808,5.68550062 12.780295,5.65759187 12.7433091,5.62968311 C12.984865,5.81195443 13.2019337,6.02188752 13.3901789,6.25602466 C13.3611004,6.22021255 13.332277,6.18415345 13.3034535,6.14834134 C13.4888929,6.38247848 13.6427031,6.63637403 13.7623332,6.90632329 C13.7444779,6.86384271 13.7250922,6.82111515 13.707237,6.77863457 C13.8322237,7.06735432 13.9174187,7.36916401 13.9612916,7.67887706 C13.9544045,7.6324448 13.9477726,7.58453066 13.9421609,7.5380984 C13.9834831,7.84657655 13.9834831,8.15777149 13.9421609,8.46476776 C13.949048,8.4183355 13.955935,8.37042136 13.9612916,8.3239891 C13.9174187,8.63370215 13.8337541,8.93551184 13.707237,9.22423159 C13.7250922,9.18150403 13.7444779,9.13902345 13.7623332,9.09654287 C13.6427031,9.36772703 13.4888929,9.62186956 13.3034535,9.85452482 C13.332277,9.81871271 13.3611004,9.78265361 13.3901789,9.7468415 C13.1950467,9.9901169 12.9616532,10.2015319 12.7364221,10.4196153 C12.3777868,10.7668693 12.0194067,11.1138764 11.6610265,11.4608834 C11.2118397,11.8958154 10.7626528,12.3305004 10.3137211,12.7654324 C9.93059864,13.1363965 9.54594575,13.5088425 9.16282331,13.8798066 C9.0005957,14.036639 8.83862317,14.1949532 8.67512018,14.3517856 C8.59553683,14.4290904 8.51034182,14.5009616 8.42106562,14.5686341 C8.45830655,14.5407254 8.49529241,14.5128166 8.53227826,14.4849079 C8.35806213,14.6138315 8.16701106,14.7215148 7.96524685,14.805488 C8.00911973,14.7881994 8.0529926,14.769429 8.09712055,14.7521403 C7.88132722,14.8400653 7.65482075,14.8998344 7.42270263,14.9316949 C7.4706567,14.9250264 7.52014122,14.918358 7.56835037,14.9131714 C7.3306206,14.9435499 7.09161546,14.9435499 6.85414077,14.9131714 C6.90209484,14.9198398 6.95157936,14.9262613 6.99978851,14.9316949 C6.76767039,14.8998344 6.54090884,14.8400653 6.32537058,14.7521403 C6.36924346,14.769429 6.41311634,14.7881994 6.45724429,14.805488 C6.255225,14.7215148 6.064429,14.6138315 5.8899578,14.4849079 C5.92694365,14.5128166 5.96418458,14.5407254 6.00117044,14.5686341 C5.82261804,14.4342769 5.66192088,14.2786795 5.52316015,14.1057934 C5.55223869,14.1418525 5.58106215,14.1776646 5.60988561,14.2137237 C5.47648145,14.0447893 5.36526882,13.8598012 5.27879844,13.66444 C5.29665368,13.7069205 5.31578429,13.7494011 5.33363953,13.7921287 C5.24308796,13.5831835 5.18135984,13.3638652 5.14845519,13.1391133 C5.15534221,13.1855455 5.16197415,13.2334597 5.1675858,13.2801389 C5.13595652,13.0499534 5.13595652,12.8185331 5.1675858,12.5885946 C5.16069878,12.6350269 5.15381176,12.682941 5.14845519,12.7296202 C5.18135984,12.5048684 5.24308796,12.285303 5.33363953,12.0766048 C5.31578429,12.1190854 5.29665368,12.161813 5.27879844,12.2042936 C5.36526882,12.0086853 5.47648145,11.8239442 5.60988561,11.6550098 C5.58106215,11.6910689 5.55223869,11.726881 5.52316015,11.7626931 C5.69916181,11.5433748 5.91750588,11.3519652 6.1192701,11.1551221 C6.4763749,10.8093499 6.8334797,10.4635778 7.1905845,10.1178056 C7.63288431,9.68954211 8.07365367,9.26276049 8.51595347,8.83449698 L9.65588301,7.73074288 C9.82601794,7.56600715 9.99640795,7.39978954 10.1680733,7.23480683 C10.2203637,7.18417591 10.2752048,7.13774365 10.3343821,7.09378119 C10.2971412,7.12168994 10.2601554,7.14959869 10.2229144,7.17750744 C10.3369329,7.09378119 10.4593688,7.02462676 10.5909874,6.97004415 C10.5471146,6.98733276 10.5032417,7.00610325 10.4593688,7.02339186 C10.5937933,6.96880925 10.7353598,6.93151526 10.8794771,6.91175685 C10.831523,6.91817833 10.7820385,6.92484679 10.7338294,6.93028036 C10.8904453,6.91027497 11.0483367,6.91027497 11.2036773,6.93028036 C11.1554681,6.92361189 11.1062387,6.91694343 11.0580295,6.91175685 C11.2021468,6.93151526 11.342438,6.96880925 11.4783929,7.02339186 C11.4342649,7.00610325 11.3903921,6.98733276 11.3465192,6.97004415 C11.4783929,7.02462676 11.6005737,7.09378119 11.7145922,7.17750744 C11.6773513,7.14959869 11.6403654,7.12168994 11.6033796,7.09378119 C11.7199488,7.18170611 11.822999,7.28123909 11.9135506,7.39435598 C11.8847271,7.35854386 11.8559037,7.32248477 11.8270802,7.28667265 C11.9135506,7.39707276 11.9849715,7.51537623 12.0413431,7.64306494 C12.0234879,7.60058437 12.0043572,7.55785681 11.986502,7.51537623 C12.0428735,7.64578173 12.0811348,7.78260871 12.1017958,7.92239945 C12.0949088,7.87572021 12.0880218,7.82780606 12.0826652,7.7813738 C12.1033263,7.93301959 12.1033263,8.08590028 12.0826652,8.23606418 C12.0895522,8.18963192 12.0964393,8.14171778 12.1017958,8.09528552 C12.0811348,8.23482928 12.0428735,8.37042136 11.986502,8.50206176 C12.0043572,8.45958118 12.0234879,8.4171006 12.0413431,8.37437304 C11.9849715,8.50206176 11.9135506,8.62036523 11.8270802,8.73076534 C11.8559037,8.69495322 11.8847271,8.65889412 11.9135506,8.62308201 C11.7722391,8.79991977 11.5924113,8.95280045 11.4301837,9.1111147 C11.1197576,9.41168949 10.8095866,9.71226428 10.4991605,10.0128391 C10.1132322,10.38652 9.72857935,10.758719 9.34265109,11.1323999 C9.00620735,11.4581667 8.66823316,11.7854153 8.33178942,12.1111821 C8.16701106,12.2707312 7.99942688,12.4275636 7.83745435,12.5898295 L7.83056733,12.596498 C7.62727266,12.7933411 7.61222325,13.155167 7.83056733,13.3492933 C8.04483021,13.5419378 8.38535514,13.5579915 8.60242385,13.3465766" id="Fill-1" fill="#ABABAB" transform="translate(9.500000, 10.000000) rotate(-180.000000) translate(-9.500000, -10.000000) "></path>
                </g>
            </g>
        </g>
    </g>
</svg>