<?xml version="1.0" encoding="UTF-8"?>
<svg width="82px" height="82px" viewBox="0 0 82 82" version="1.1" xmlns="http://www.w3.org/2000/svg" xmlns:xlink="http://www.w3.org/1999/xlink">
    <title>6EDCB5F9-F2A2-47D5-8721-82DEA1717DCD</title>
    <g id="Design" stroke="none" stroke-width="1" fill="none" fill-rule="evenodd">
        <g id="4Quastion" transform="translate(-1574.000000, -276.000000)">
            <g id="Group-4-Copy-3" transform="translate(1468.000000, 278.000000)">
                <g id="Group-3" transform="translate(108.000000, 0.000000)">
                    <g id="Group-6" transform="translate(5.000000, 5.000000)">
                        <circle id="Oval" fill="#CCCBFF" cx="34" cy="34" r="34"></circle>
                        <path d="M35.8552886,21.1796917 L38.2609154,28.5833369 L46.0454716,28.5833369 C47.9352636,28.5833369 48.7209461,31.0014948 47.1921526,32.1121275 L40.8941618,36.6878652 L43.2997886,44.0915104 C43.883772,45.8886067 41.8267842,47.3832401 40.2978191,46.2726075 L34,41.6966981 L27.7021809,46.2726075 C26.1733874,47.3832401 24.116228,45.8886067 24.7002114,44.0915104 L27.1058382,36.6878652 L20.8078474,32.1121275 C19.2790539,31.0014948 20.0647364,28.5833369 21.9545284,28.5833369 L29.7392562,28.5833369 L32.1447114,21.1796917 C32.7286947,19.3824238 35.2713053,19.3824238 35.8552886,21.1796917 Z" id="Stroke-1" stroke="#716EFF" stroke-width="3" fill="#716EFF" stroke-linejoin="round"></path>
                    </g>
                    <circle id="Oval" stroke="#716EFF" stroke-width="3" stroke-linecap="round" stroke-linejoin="round" cx="39" cy="39" r="39"></circle>
                </g>
            </g>
        </g>
    </g>
</svg>