<?xml version="1.0" encoding="UTF-8"?>
<svg width="149px" height="149px" viewBox="0 0 149 149" version="1.1" xmlns="http://www.w3.org/2000/svg" xmlns:xlink="http://www.w3.org/1999/xlink">
    <title>D9103312-53B3-4AC5-9B29-FFF89D02AD1E</title>
    <g id="Design" stroke="none" stroke-width="1" fill="none" fill-rule="evenodd">
        <g id="1-Question" transform="translate(-1580.000000, -768.000000)">
            <g id="Group-4" transform="translate(1580.000000, 767.999900)">
                <g id="Group-3" transform="translate(0.000000, 0.000000)">
                    <path d="M148.735,74.367 C148.735,33.296 115.439,0 74.367,0 C33.295,0 0,33.296 0,74.367 C0,115.439 33.295,148.735 74.367,148.735 C115.439,148.735 148.735,115.439 148.735,74.367" id="Fill-1" stroke="#F5F5F5" stroke-width="7"></path>
                    <path d="M146.3675,74.3670159 C146.3675,34.6035171 114.131483,2.3675 74.3670159,2.3675 C34.6025489,2.3675 2.3675,34.6035171 2.3675,74.3670159 C2.3675,114.131483 34.6025489,146.3675 74.3670159,146.3675 C114.131483,146.3675 146.3675,114.131483 146.3675,74.3670159" id="Fill-1" fill="#E31C25"></path>
                </g>
                <path d="M111.261302,74.367 C111.261302,72.332 111.1003,70.297 110.7813,68.292 C110.1853,64.549 109.0123,60.905 107.3123,57.518 C106.0303,54.966 104.4543,52.556 102.6223,50.365 C101.6033,49.144 100.5043,47.971 99.2963,46.932 C99.1743,46.828 99.0523,46.724 98.9263,46.625 L93.7343,53.276 C93.7343,53.276 98.9263,58.305 99.8993,61.063 C101.1973,61.225 104.1163,61.388 104.1173,61.388 C104.3243,61.399 104.8633,63.221 104.9223,63.39 C105.5423,65.138 106.0143,66.941 106.3423,68.767 C106.6893,70.686 106.8343,72.628 106.8753,74.575 L106.8753,74.171 C106.8653,78.345 106.0793,82.532 104.5223,86.406 C104.3953,86.722 104.2633,87.038 104.1173,87.346 C104.1173,87.346 101.1973,87.509 99.8993,87.671 C98.9263,90.429 93.7343,95.458 93.7343,95.458 C93.7343,95.458 98.9253,102.109 98.9263,102.109 C98.9643,102.159 101.0863,100.089 101.1953,99.974 C103.0283,98.042 104.6353,95.891 106.0003,93.606 C107.9413,90.355 109.3833,86.811 110.2513,83.127 C110.9263,80.263 111.2623,77.314 111.261302,74.367" id="Fill-4" fill="#F1F1F1"></path>
                <path d="M98.1881,74.367 C98.1881,73.072 98.0851,71.778 97.8821,70.502 C97.5031,68.121 96.7571,65.804 95.6751,63.648 C94.8601,62.024 93.8581,60.492 92.6931,59.097 C92.0431,58.321 91.3451,57.575 90.5771,56.914 C90.4991,56.847 90.4201,56.782 90.3401,56.719 L87.0381,60.95 C87.0381,60.95 90.3401,64.149 90.9591,65.904 C91.7861,66.008 93.6431,66.11 93.6431,66.11 C93.7751,66.118 94.1181,67.276 94.1561,67.384 C94.5501,68.496 94.8501,69.643 95.0591,70.804 C95.2791,72.025 95.3721,73.261 95.3981,74.5 L95.3981,74.243 C95.3921,76.897 94.8911,79.561 93.9011,82.026 C93.8201,82.227 93.7371,82.428 93.6431,82.624 C93.6431,82.624 91.7861,82.727 90.9591,82.831 C90.3401,84.585 87.0381,87.784 87.0381,87.784 C87.0381,87.784 90.3401,92.015 90.3401,92.016 C90.3651,92.048 91.7151,90.73 91.7851,90.658 C92.9511,89.429 93.9721,88.06 94.8411,86.606 C96.0761,84.539 96.9931,82.284 97.5451,79.939 C97.9751,78.118 98.1881,76.242 98.1881,74.367" id="Fill-6" fill="#F1F1F1"></path>
                <path d="M37.4723,74.367 C37.4733,72.332 37.6333,70.297 37.9523,68.292 C38.5493,64.549 39.7213,60.905 41.4223,57.518 C42.7033,54.966 44.2793,52.556 46.1113,50.365 C47.1313,49.144 48.2293,47.971 49.4373,46.932 C49.5593,46.828 49.6823,46.724 49.8083,46.625 L54.9993,53.276 C54.9993,53.276 49.8083,58.305 48.8343,61.063 C47.5363,61.225 44.6173,61.388 44.6173,61.388 C44.4093,61.399 43.8713,63.221 43.8113,63.39 C43.1913,65.138 42.7203,66.941 42.3913,68.767 C42.0453,70.686 41.9003,72.628 41.8593,74.575 C41.8593,74.44 41.8583,74.305 41.8583,74.171 C41.8683,78.345 42.6553,82.532 44.2113,86.406 C44.3383,86.722 44.4703,87.038 44.6173,87.346 C44.6173,87.346 47.5363,87.509 48.8343,87.671 C49.8083,90.429 54.9993,95.458 54.9993,95.458 C54.9993,95.458 49.8093,102.109 49.8083,102.109 C49.7703,102.159 47.6473,100.089 47.5383,99.974 C45.7053,98.042 44.0993,95.891 42.7343,93.606 C40.7923,90.355 39.3513,86.811 38.4823,83.127 C37.8073,80.263 37.4723,77.314 37.4723,74.367" id="Fill-8" fill="#F1F1F1"></path>
                <path d="M50.5455,74.367 C50.5465,73.072 50.6485,71.778 50.8515,70.502 C51.2315,68.121 51.9775,65.804 53.0585,63.648 C53.8735,62.024 54.8755,60.492 56.0415,59.097 C56.6905,58.321 57.3895,57.575 58.1575,56.914 C58.2345,56.847 58.3135,56.782 58.3935,56.719 L61.6955,60.95 C61.6955,60.95 58.3935,64.149 57.7745,65.904 C56.9485,66.008 55.0905,66.11 55.0905,66.11 C54.9585,66.118 54.6165,67.276 54.5785,67.384 C54.1845,68.496 53.8845,69.643 53.6755,70.804 C53.4545,72.025 53.3615,73.261 53.3365,74.5 C53.3365,74.414 53.3355,74.328 53.3355,74.243 C53.3425,76.897 53.8425,79.561 54.8325,82.026 C54.9135,82.227 54.9975,82.428 55.0905,82.624 C55.0905,82.624 56.9485,82.727 57.7745,82.831 C58.3935,84.585 61.6955,87.784 61.6955,87.784 C61.6955,87.784 58.3945,92.015 58.3935,92.016 C58.3685,92.048 57.0195,90.73 56.9495,90.658 C55.7835,89.429 54.7615,88.06 53.8935,86.606 C52.6575,84.539 51.7405,82.284 51.1885,79.939 C50.7585,78.118 50.5455,76.242 50.5455,74.367" id="Fill-10" fill="#F1F1F1"></path>
                <path d="M79.4313,74.367 C79.4313,71.57 77.1633,69.303 74.3673,69.303 C71.5703,69.303 69.3023,71.57 69.3023,74.367 C69.3023,77.165 71.5703,79.432 74.3673,79.432 C77.1633,79.432 79.4313,77.165 79.4313,74.367" id="Fill-12" fill="#F1F1F1"></path>
            </g>
        </g>
    </g>
</svg>