<?xml version="1.0" encoding="UTF-8"?>
<svg width="87px" height="112px" viewBox="0 0 87 112" version="1.1" xmlns="http://www.w3.org/2000/svg" xmlns:xlink="http://www.w3.org/1999/xlink">
    <title>EC3A6772-2096-4E27-AAD1-D659835F2F91</title>
    <g id="Design" stroke="none" stroke-width="1" fill="none" fill-rule="evenodd" stroke-linecap="round" stroke-linejoin="round">
        <g id="Personal-Area-subscription" transform="translate(-640.000000, -275.000000)" stroke="#716EFF" stroke-width="3">
            <g id="Group-4-Copy-2" transform="translate(598.000000, 238.000000)">
                <g id="icon/upload-files" transform="translate(42.000000, 37.000000)">
                    <line x1="9.83288738" y1="22.1828111" x2="34.3642286" y2="22.1828111" id="Stroke-1"></line>
                    <line x1="9.83288738" y1="31.876803" x2="59.3656095" y2="31.876803" id="Stroke-2"></line>
                    <line x1="9.83288738" y1="41.5700076" x2="59.3656095" y2="41.5700076" id="Stroke-3"></line>
                    <line x1="9.83288738" y1="51.2639995" x2="59.3656095" y2="51.2639995" id="Stroke-4"></line>
                    <line x1="9.83288738" y1="60.9579913" x2="59.3656095" y2="60.9579913" id="Stroke-5"></line>
                    <line x1="9.83288738" y1="70.6519832" x2="59.3656095" y2="70.6519832" id="Stroke-6"></line>
                    <line x1="9.83288738" y1="80.3458438" x2="59.3656095" y2="80.3458438" id="Stroke-7"></line>
                    <g id="Group-18">
                        <path d="M87,96.9329649 C87,88.6109339 80.2487606,81.8646178 71.9206565,81.8646178 C63.5925523,81.8646178 56.841313,88.6109339 56.841313,96.9329649 C56.841313,105.254996 63.5925523,112 71.9206565,112 C80.2487606,112 87,105.254996 87,96.9329649 Z" id="Stroke-8" fill="#CCCBFF"></path>
                        <polyline id="Stroke-10" points="62.7615801 96.9156464 72.2936684 87.3905093 81.8270696 96.9156464"></polyline>
                        <line x1="72.293931" y1="87.3902469" x2="72.293931" y2="106.254217" id="Stroke-12"></line>
                        <polyline id="Stroke-14" points="60.0836672 106.254742 0 106.254742 0 9.69399185 72.2941935 9.69399185 72.2941935 81.8646178"></polyline>
                        <polyline id="Stroke-16" points="9.83288738 9.69438545 9.83288738 0 82.1270809 0 82.1270809 85.8600585"></polyline>
                    </g>
                </g>
            </g>
        </g>
    </g>
</svg>