<svg xmlns="http://www.w3.org/2000/svg" width="102" height="103" viewBox="0 0 102 103">
    <g fill="none" fill-rule="evenodd">
        <g>
            <g>
                <g>
                    <path stroke="#F5F5F5" stroke-width="7" d="M102 51c0-28.166-22.834-51-51-51C22.833 0 0 22.834 0 51s22.833 51 51 51c28.166 0 51-22.834 51-51" transform="translate(-263.000000, -816.000000) translate(263.000000, 816.867500) translate(0.000000, 0.000000)"/>
                    <path fill="#E31C25" d="M100.376 51C100.376 23.73 78.27 1.624 51 1.624 23.73 1.624 1.624 23.73 1.624 51c0 27.27 22.106 49.376 49.376 49.376 27.27 0 49.376-22.107 49.376-49.376" transform="translate(-263.000000, -816.000000) translate(263.000000, 816.867500) translate(0.000000, 0.000000)"/>
                </g>
                <path fill="#F1F1F1" d="M76.301 51c0-1.396-.11-2.791-.329-4.166-.409-2.567-1.213-5.066-2.379-7.39-.88-1.75-1.96-3.402-3.216-4.905-.7-.837-1.453-1.641-2.281-2.354-.084-.071-.168-.142-.254-.21l-3.56 4.56s3.56 3.45 4.227 5.341c.89.111 2.892.223 2.893.223.142.007.512 1.257.552 1.373.425 1.199.749 2.435.974 3.687.238 1.316.337 2.648.365 3.983v-.277c-.007 2.863-.546 5.734-1.613 8.39-.087.218-.178.434-.278.645 0 0-2.003.112-2.893.223-.667 1.892-4.228 5.34-4.228 5.34l3.561 4.562c.026.034 1.481-1.386 1.556-1.464 1.257-1.325 2.36-2.8 3.295-4.368 1.331-2.229 2.32-4.66 2.916-7.186.462-1.964.693-3.986.692-6.007" transform="translate(-263.000000, -816.000000) translate(263.000000, 816.867500)"/>
                <path fill="#F1F1F1" d="M67.336 51c0-.888-.07-1.776-.21-2.65-.26-1.634-.772-3.223-1.514-4.701-.559-1.114-1.246-2.165-2.045-3.121-.445-.532-.924-1.044-1.45-1.497-.054-.046-.108-.09-.163-.134l-2.265 2.902s2.265 2.193 2.69 3.397c.566.071 1.84.141 1.84.141.09.006.326.8.352.874.27.762.476 1.549.619 2.345.15.838.215 1.685.232 2.535v-.176c-.004 1.82-.347 3.647-1.026 5.337-.056.138-.113.276-.177.41 0 0-1.274.07-1.84.142-.425 1.203-2.69 3.397-2.69 3.397l2.265 2.902c.017.022.943-.882.99-.931.8-.843 1.5-1.782 2.096-2.779.847-1.418 1.476-2.964 1.855-4.572.295-1.249.44-2.535.44-3.821M25.698 51c0-1.396.11-2.791.33-4.166.408-2.567 1.212-5.066 2.379-7.39.878-1.75 1.959-3.402 3.215-4.905.7-.837 1.453-1.641 2.281-2.354.084-.071.168-.142.255-.21l3.56 4.56s-3.56 3.45-4.228 5.341c-.89.111-2.892.223-2.892.223-.143.007-.512 1.257-.553 1.373-.425 1.199-.748 2.435-.974 3.687-.237 1.316-.336 2.648-.365 3.983v-.277c.007 2.863.546 5.734 1.613 8.39.087.218.178.434.279.645 0 0 2.002.112 2.892.223.668 1.892 4.228 5.34 4.228 5.34l-3.56 4.562c-.026.034-1.482-1.386-1.557-1.464-1.257-1.325-2.358-2.8-3.295-4.368-1.331-2.229-2.32-4.66-2.915-7.186-.463-1.964-.693-3.986-.693-6.007" transform="translate(-263.000000, -816.000000) translate(263.000000, 816.867500)"/>
                <path fill="#F1F1F1" d="M34.663 51c.001-.888.07-1.776.21-2.65.26-1.634.772-3.223 1.514-4.701.559-1.114 1.246-2.165 2.045-3.121.445-.532.925-1.044 1.451-1.497.053-.046.107-.09.162-.134l2.265 2.902s-2.265 2.193-2.69 3.397c-.566.071-1.84.141-1.84.141-.09.006-.325.8-.351.874-.27.762-.476 1.549-.62 2.345-.15.838-.215 1.685-.232 2.535v-.176c.004 1.82.347 3.647 1.026 5.337.056.138.113.276.177.41 0 0 1.274.07 1.84.142.425 1.203 2.69 3.397 2.69 3.397l-2.265 2.902c-.017.022-.942-.882-.99-.931-.8-.843-1.5-1.782-2.096-2.779-.847-1.418-1.476-2.964-1.855-4.572-.295-1.249-.44-2.535-.44-3.821M54.473 51c0-1.918-1.556-3.473-3.473-3.473-1.918 0-3.474 1.555-3.474 3.473s1.556 3.473 3.474 3.473c1.917 0 3.473-1.555 3.473-3.473" transform="translate(-263.000000, -816.000000) translate(263.000000, 816.867500)"/>
            </g>
        </g>
    </g>
</svg>
