<svg xmlns="http://www.w3.org/2000/svg" width="89" height="108" viewBox="0 0 89 108">
    <g fill="none" fill-rule="evenodd" stroke-linecap="round" stroke-linejoin="round">
        <g stroke="#c9c9c9" stroke-width="3">
            <g>
                <g>
                    <path d="M9.833 12.489L34.364 12.489M9.833 22.183L59.366 22.183M9.833 31.876L59.366 31.876M9.833 41.57L59.366 41.57M9.833 51.264L59.366 51.264M9.833 60.958L59.366 60.958M9.833 70.652L54.5 70.806M51 96.306L0 96.561 0 0 72.294 0 72 68.306" transform="translate(-829.000000, -276.000000) translate(784.000000, 238.000000) translate(47.000000, 39.693992)"/>
                    <path fill="#CCCBFF" d="M58 82.64L63.334 82.64 63.334 77.306 69.666 77.306 69.666 82.64 75 82.64 75 88.974 69.666 88.974 69.666 94.306 63.334 94.306 63.334 88.974 58 88.974z" transform="translate(-829.000000, -276.000000) translate(784.000000, 238.000000) translate(47.000000, 39.693992)"/>
                    <path d="M85 85.805c0-10.216-8.28-18.499-18.499-18.499C56.283 67.306 48 75.589 48 85.805c0 10.218 8.283 18.501 18.501 18.501C76.72 104.306 85 96.023 85 85.805z" transform="translate(-829.000000, -276.000000) translate(784.000000, 238.000000) translate(47.000000, 39.693992)"/>
                </g>
            </g>
        </g>
    </g>
</svg>
