<svg xmlns="http://www.w3.org/2000/svg" width="40" height="33" viewBox="0 0 40 33">
    <g fill="none" fill-rule="evenodd" stroke-linecap="round" stroke-linejoin="round">
        <g stroke="#716EFF" stroke-width="1.565">
            <g>
                <g>
                    <path d="M25.61 7.097H3.422C1.533 7.097 0 8.638 0 10.54v14.48c0 1.504.96 2.783 2.297 3.25.665.234 1.126.845 1.126 1.554v1.707c0 .647.777.97 1.23.513l2.823-2.839c.474-.476 1.116-.743 1.786-.743H25.61c1.89 0 3.423-1.542 3.423-3.443V10.54c0-1.901-1.532-3.442-3.423-3.442z" transform="translate(-299.000000, -346.000000) translate(20.000000, 333.000000) translate(279.000000, 13.000000)"/>
                    <path d="M10.968 7.08V3.443C10.968 1.542 12.5 0 14.39 0h22.186C38.467 0 40 1.542 40 3.443v14.479c0 1.505-.96 2.784-2.297 3.252-.665.233-1.126.844-1.126 1.553v1.708c0 .646-.777.97-1.231.512l-2.823-2.838c-.473-.476-1.115-.744-1.785-.744h-1.68" transform="translate(-299.000000, -346.000000) translate(20.000000, 333.000000) translate(279.000000, 13.000000)"/>
                    <path fill="#CCCBFF" d="M10.323 18.226c0 .98-.795 1.774-1.774 1.774-.98 0-1.775-.794-1.775-1.774s.795-1.774 1.775-1.774c.98 0 1.774.794 1.774 1.774zM16.129 18.226c0 .98-.794 1.774-1.774 1.774s-1.774-.794-1.774-1.774.794-1.774 1.774-1.774 1.774.794 1.774 1.774zM22.258 18.226c0 .98-.794 1.774-1.774 1.774s-1.774-.794-1.774-1.774.794-1.774 1.774-1.774 1.774.794 1.774 1.774z" transform="translate(-299.000000, -346.000000) translate(20.000000, 333.000000) translate(279.000000, 13.000000)"/>
                </g>
            </g>
        </g>
    </g>
</svg>
