<svg xmlns="http://www.w3.org/2000/svg" width="31" height="36" viewBox="0 0 31 36">
    <g fill="none" fill-rule="evenodd" stroke-linecap="round" stroke-linejoin="round">
        <g stroke="#716EFF" stroke-width="1.565">
            <g>
                <g>
                    <path d="M25.722 25.279V10.088C25.722 4.516 21.145 0 15.5 0S5.278 4.516 5.278 10.088v15.19" transform="translate(-304.000000, -269.000000) translate(20.000000, 259.000000) translate(284.000000, 10.000000)"/>
                    <path d="M5.278 10.088s7.612-.048 11.527-2.516c.109.107 5.11 2.516 8.917 2.516" transform="translate(-304.000000, -269.000000) translate(20.000000, 259.000000) translate(284.000000, 10.000000)"/>
                    <path d="M22.46 9.902v4.214c0 3.854-3.165 6.978-7.07 6.978-3.905 0-7.07-3.124-7.07-6.978V9.902M13.548 12.64c-.75-.742-1.967-.742-2.718 0M13.188 17.164c1.217 1.2 3.186 1.2 4.403 0M20.142 12.64c-.751-.742-1.967-.742-2.718 0M0 36L1.947 26.366 12.189 22.862 12.189 36M31 36L29.053 26.366 18.811 22.862 18.811 36" transform="translate(-304.000000, -269.000000) translate(20.000000, 259.000000) translate(284.000000, 10.000000)"/>
                    <path d="M18.811 20.222v3.202c0 1.805-1.482 3.268-3.31 3.268-1.83 0-3.312-1.463-3.312-3.268v-3.087M5.278 32.357H3.895v-.547c0-1.314 1.08-2.38 2.41-2.38h.11" transform="translate(-304.000000, -269.000000) translate(20.000000, 259.000000) translate(284.000000, 10.000000)"/>
                    <path d="M12.19 22.862l-3.491 1.913c-1.41.773-2.284 2.239-2.284 3.83v.826s2.52 0 2.52 2.379v.547H7.552M18.811 22.862l3.49 1.913c1.41.773 2.284 2.239 2.284 3.83v.72" transform="translate(-304.000000, -269.000000) translate(20.000000, 259.000000) translate(284.000000, 10.000000)"/>
                    <path fill="#CCCBFF" d="M26.174 30.894c0-.866-.711-1.568-1.589-1.568-.877 0-1.589.702-1.589 1.568 0 .866.712 1.568 1.59 1.568.877 0 1.588-.702 1.588-1.568z" transform="translate(-304.000000, -269.000000) translate(20.000000, 259.000000) translate(284.000000, 10.000000)"/>
                    <path d="M14.908 15.896s.514.174.963 0" transform="translate(-304.000000, -269.000000) translate(20.000000, 259.000000) translate(284.000000, 10.000000)"/>
                </g>
            </g>
        </g>
    </g>
</svg>
